<?xml version="1.0" standalone="no"?>
<!DOCTYPE svg PUBLIC "-//W3C//DTD SVG 20010904//EN"
 "http://www.w3.org/TR/2001/REC-SVG-20010904/DTD/svg10.dtd">
<svg version="1.0" xmlns="http://www.w3.org/2000/svg"
 width="557.000000pt" height="396.000000pt" viewBox="0 0 557.000000 396.000000"
 preserveAspectRatio="xMidYMid meet">

<g transform="translate(0.000000,396.000000) scale(0.100000,-0.100000)"
fill="#000000" stroke="none">
<path d="M2575 3844 c-22 -2 -89 -9 -150 -14 -1094 -104 -1991 -684 -2176
-1407 -58 -229 -48 -533 26 -798 33 -117 137 -325 222 -444 241 -336 640 -609
1125 -769 352 -116 681 -170 1098 -179 506 -11 904 43 1318 179 199 65 452
183 597 278 515 338 787 773 811 1300 15 316 -51 574 -211 822 -269 416 -811
761 -1450 922 -313 78 -534 106 -890 110 -154 2 -298 2 -320 0z m665 -119
c381 -43 719 -131 1022 -266 143 -64 235 -114 371 -202 l109 -70 -54 -23 c-85
-35 -287 -92 -379 -105 -120 -17 -317 -14 -429 6 -112 19 -243 62 -430 139
-163 66 -261 93 -400 108 -245 26 -510 -42 -686 -176 -35 -27 -55 -34 -111
-39 -37 -4 -142 -25 -233 -48 -158 -39 -170 -41 -275 -36 -107 6 -166 18 -395
82 -147 40 -370 116 -370 125 0 9 88 66 199 130 338 194 850 343 1316 383 129
11 622 6 745 -8z m-102 -531 c86 -15 216 -59 407 -138 241 -98 488 -135 725
-106 131 16 323 66 445 115 61 25 116 45 122 45 22 0 207 -196 276 -291 37
-52 90 -139 117 -194 46 -94 108 -280 97 -291 -3 -3 -90 -27 -194 -54 -103
-26 -255 -69 -337 -95 -142 -44 -476 -169 -536 -200 l-28 -15 -159 138 c-848
736 -925 796 -1063 822 -75 15 -173 -3 -258 -46 -37 -18 -136 -87 -221 -153
-200 -155 -239 -175 -351 -175 -94 0 -180 28 -180 59 0 17 202 237 318 347
233 220 487 292 820 232z m-2003 -141 c183 -62 452 -130 567 -142 115 -13 191
-4 354 39 61 17 116 30 123 30 7 0 -51 -68 -128 -151 -145 -155 -167 -190
-149 -239 32 -86 155 -136 319 -129 111 5 170 35 350 175 75 59 171 123 218
147 77 38 91 42 160 42 98 0 149 -25 304 -149 202 -160 890 -753 944 -813 79
-87 39 -196 -84 -233 -87 -26 -86 -27 -423 273 -88 79 -127 107 -143 105 -52
-7 -31 -38 157 -226 113 -115 191 -201 200 -223 27 -66 -7 -134 -87 -174 -55
-27 -123 -33 -160 -13 -12 6 -85 72 -162 146 -138 132 -186 169 -205 157 -26
-16 -1 -55 113 -183 143 -160 157 -179 157 -210 0 -64 -75 -122 -159 -122 -48
0 -77 12 -106 45 -11 13 -67 66 -124 119 -102 95 -141 116 -154 81 -6 -15 24
-54 146 -187 42 -47 77 -91 77 -97 0 -20 -82 -51 -135 -51 -40 0 -176 37 -190
52 -2 2 3 32 11 67 24 103 -8 213 -83 283 -45 43 -121 78 -168 78 l-42 0 -6
50 c-15 126 -58 190 -158 235 -55 24 -71 27 -138 23 l-76 -4 -27 37 c-16 23
-48 47 -85 65 -77 39 -194 41 -260 6 l-43 -22 -45 34 c-52 40 -100 56 -165 56
-46 0 -120 -28 -152 -57 -15 -14 -20 -13 -45 5 -79 56 -302 152 -503 217 -90
29 -568 155 -588 155 -7 0 9 71 30 135 71 208 230 433 430 606 l68 58 67 -26
c38 -14 127 -45 198 -70z m-567 -869 c291 -72 526 -149 677 -224 156 -77 157
-78 145 -121 -44 -153 89 -319 256 -319 37 0 42 -3 47 -27 9 -45 60 -116 105
-146 57 -40 107 -56 174 -57 47 0 58 -3 63 -20 11 -34 103 -108 157 -126 54
-17 109 -21 145 -10 17 5 25 -1 48 -39 49 -85 143 -137 250 -138 75 -1 148 24
192 65 l22 20 78 -33 c71 -30 87 -33 178 -34 107 0 142 11 197 62 23 22 36 25
105 27 66 1 85 5 125 29 60 35 114 90 129 132 11 31 15 32 63 33 139 1 268
101 290 225 7 37 7 37 55 37 180 0 319 177 256 327 -8 19 -15 37 -15 39 0 16
319 132 556 203 168 50 437 121 462 121 9 0 12 -25 12 -94 0 -295 -132 -578
-390 -836 -128 -128 -214 -195 -371 -293 -693 -428 -1690 -565 -2605 -357
-717 163 -1291 544 -1534 1016 -46 89 -94 237 -110 334 -13 87 -13 260 1 260
5 0 112 -25 237 -56z m1139 -263 c48 -22 72 -54 88 -118 l12 -45 20 33 c49 84
170 122 268 84 52 -19 80 -54 94 -114 11 -50 17 -59 35 -46 63 47 72 50 131
50 95 0 156 -46 176 -133 8 -38 6 -59 -18 -166 l-6 -29 44 8 c24 5 67 9 94 9
191 3 268 -255 109 -366 -74 -52 -181 -46 -250 14 -42 37 -59 68 -69 125 -4
24 -11 46 -16 49 -5 3 -31 -9 -57 -26 -41 -28 -52 -31 -92 -25 -70 10 -129 49
-152 102 -11 25 -18 53 -15 63 9 36 -8 43 -51 21 -61 -31 -127 -28 -185 8 -61
39 -90 95 -91 178 -1 34 -4 64 -8 68 -3 4 -20 -3 -37 -16 -46 -34 -126 -38
-170 -7 -58 39 -76 72 -76 136 0 70 28 115 89 143 52 23 80 23 133 0z"/>
</g>
</svg>
